<svg  preserveAspectRatio="xMidMid slice" xmlns="http://www.w3.org/2000/svg" viewBox="0 0 16361 2697" height="auto" width="100%" style="width: auto; min-height:100px;">
  
<g transform="scale(.403)">
<path fill="#ffc200" d="m1607.6 1106h-347.6l-456.2-627.8-135.6 186.5 320.6 441.3h-347.6l-146.8-202-146.8 202h-347.6l803.8-1106 803.8 1106zm-331.9-30.9h271.1l-743-1022.8-743.1 1022.8h271.1l162.6-223.7 162.6 223.7h271.1l-298.1-410.4 173.8-239.2 471.9 649.6z"></path>
<path fill="#ffc200" d="m2661.4 0-803.8 1106-803.8-1106h347.6l146.8 202 146.8-202h347.6l-320.6 441.3 135.6 186.5 456.2-627.8h347.6zm-331.9 30.9-471.9 649.6-173.8-239.2 298.1-410.4h-271.1l-162.6 223.7-162.6-223.7h-271.1l743.1 1022.8 743-1022.8h-271.1z"></path>
<path fill="#ffc200" d="m3715.2 1106h-347.6l-456.2-627.8-135.6 186.5 320.6 441.3h-347.6l-146.8-202-146.8 202h-347.6l803.8-1106 803.8 1106zm-331.9-30.9h271.1l-743-1022.8-743.1 1022.8h271.1l162.6-223.7 162.6 223.7h271.1l-298.1-410.4 173.8-239.2 471.9 649.6z"></path>
<path fill="#ffc200" d="m4769 0-803.8 1106-803.8-1106h347.6l146.8 202 146.8-202h347.6l-320.6 441.3 135.6 186.5 456.2-627.8h347.6zm-331.9 30.9-471.9 649.6-173.8-239.2 298.1-410.4h-271.1l-162.6 223.7-162.6-223.7h-271.1l743.1 1022.8 743-1022.8h-271.1z"></path>
<path fill="#ffc200" d="m4215.2 1106 803.8-1106 803.8 1106h-347.6l-146.8-202-146.8 202h-347.6l320.6-441.3-135.6-186.5-456.2 627.8h-347.6zm331.9-30.9 471.9-649.6 173.8 239.2-298.1 410.4h271.1l162.6-223.7 162.6 223.7h271.1l-743.1-1022.8-743 1022.8h271.1z"></path>
<path fill="#ffc200" d="m6876.6 0-803.8 1106-803.8-1106h347.6l146.8 202 146.8-202h347.6l-320.6 441.3 135.6 186.5 456.2-627.8h347.6zm-331.9 30.9-471.9 649.6-173.8-239.2 298.1-410.4h-271.1l-162.6 223.7-162.6-223.7h-271.1l743.1 1022.8 743-1022.8h-271.1z"></path>
<path fill="#ffc200" d="m6322.8 1106 803.8-1106 803.8 1106h-347.6l-146.8-202-146.8 202h-347.6l320.6-441.3-135.6-186.5-456.2 627.8h-347.6zm331.9-30.9 471.9-649.6 173.8 239.2-298.1 410.4h271.1l162.6-223.7 162.6 223.7h271.1l-743.1-1022.8-743 1022.8h271.1z"></path>
<path fill="#ffc200" d="m8984.2 0-803.8 1106-803.8-1106h347.6l146.8 202 146.8-202h347.6l-320.6 441.3 135.6 186.5 456.2-627.8h347.6zm-331.9 30.9-471.9 649.6-173.8-239.2 298.1-410.4h-271.1l-162.6 223.7-162.6-223.7h-271.1l743.1 1022.8 743-1022.8h-271.1z"></path>
<path fill="#ffc200" d="m10038 1106h-347.6l-456.2-627.8-135.6 186.5 320.6 441.3h-347.6l-146.8-202-146.8 202h-347.6l803.8-1106 803.8 1106zm-331.9-30.9h271.1l-743-1022.8-743.1 1022.8h271.1l162.6-223.7 162.6 223.7h271.1l-298.1-410.4 173.8-239.2 471.9 649.6z"></path>
<path fill="#ffc200" d="m11092 0-803.8 1106-803.8-1106h347.6l146.8 202 146.8-202h347.6l-320.6 441.3 135.6 186.5 456.2-627.8h347.6zm-331.9 30.9-471.9 649.6-173.8-239.2 298.1-410.4h-271.1l-162.6 223.7-162.6-223.7h-271.1l743.1 1022.8 743-1022.8h-271.1z"></path>
<path fill="#ffc200" d="m12146 1106h-347.6l-456.2-627.8-135.6 186.5 320.6 441.3h-347.6l-146.8-202-146.8 202h-347.6l803.8-1106 803.8 1106zm-331.9-30.9h271.1l-743-1022.8-743.1 1022.8h271.1l162.6-223.7 162.6 223.7h271.1l-298.1-410.4 173.8-239.2 471.9 649.6z"></path>
<path fill="#ffc200" d="m13199 0-803.8 1106-803.8-1106h347.6l146.8 202 146.8-202h347.6l-320.6 441.3 135.6 186.5 456.2-627.8h347.6zm-331.9 30.9-471.9 649.6-173.8-239.2 298.1-410.4h-271.1l-162.6 223.7-162.6-223.7h-271.1l743.1 1022.8 743-1022.8h-271.1z"></path>
<path fill="#ffc200" d="m12646 1106 803.8-1106 803.8 1106h-347.6l-146.8-202-146.8 202h-347.6l320.6-441.3-135.6-186.5-456.2 627.8h-347.6zm331.9-30.9 471.9-649.6 173.8 239.2-298.1 410.4h271.1l162.6-223.7 162.6 223.7h271.1l-743.1-1022.8-743 1022.8h271.1z"></path>
<path fill="#ffc200" d="m15307 0-803.8 1106-803.8-1106h347.6l146.8 202 146.8-202h347.6l-320.6 441.3 135.6 186.5 456.2-627.8h347.6zm-331.9 30.9-471.9 649.6-173.8-239.2 298.1-410.4h-271.1l-162.6 223.7-162.6-223.7h-271.1l743.1 1022.8 743-1022.8h-271.1z"></path>
<path fill="#ffc200" d="m14753 1106 803.8-1106 803.8 1106h-347.6l-146.8-202-146.8 202h-347.6l320.6-441.3-135.6-186.5-456.2 627.8h-347.6zm331.9-30.9 471.9-649.6 173.8 239.2-298.1 410.4h271.1l162.6-223.7 162.6 223.7h271.1l-743.1-1022.8-743 1022.8h271.1z"></path>
<path fill="#ffc200" d="m17415 0-803.8 1106-803.8-1106h347.6l146.8 202 146.8-202h347.6l-320.6 441.3 135.6 186.5 456.2-627.8h347.6zm-331.9 30.9-471.9 649.6-173.8-239.2 298.1-410.4h-271.1l-162.6 223.7-162.6-223.7h-271.1l743.1 1022.8 743-1022.8h-271.1z"></path>
<path fill="#ffc200" d="m18468 1106h-347.6l-456.2-627.8-135.6 186.5 320.6 441.3h-347.6l-146.8-202-146.8 202h-347.6l803.8-1106 803.8 1106zm-331.9-30.9h271.1l-743-1022.8-743.1 1022.8h271.1l162.6-223.7 162.6 223.7h271.1l-298.1-410.4 173.8-239.2 471.9 649.6z"></path>
<path fill="#ffc200" d="m19522 0-803.8 1106-803.8-1106h347.6l146.8 202 146.8-202h347.6l-320.6 441.3 135.6 186.5 456.2-627.8h347.6zm-331.9 30.9-471.9 649.6-173.8-239.2 298.1-410.4h-271.1l-162.6 223.7-162.6-223.7h-271.1l743.1 1022.8 743-1022.8h-271.1z"></path>
<path fill="#ffc200" d="m20576 1106h-347.6l-456.2-627.8-135.6 186.5 320.6 441.3h-347.6l-146.8-202-146.8 202h-347.6l803.8-1106 803.8 1106zm-331.9-30.9h271.1l-743-1022.8-743.1 1022.8h271.1l162.6-223.7 162.6 223.7h271.1l-298.1-410.4 173.8-239.2 471.9 649.6z"></path>
<path fill="#ffc200" d="m21630 0-803.8 1106-803.8-1106h347.6l146.8 202 146.8-202h347.6l-320.6 441.3 135.6 186.5 456.2-627.8h347.6zm-331.9 30.9-471.9 649.6-173.8-239.2 298.1-410.4h-271.1l-162.6 223.7-162.6-223.7h-271.1l743.1 1022.8 743-1022.8h-271.1z"></path>
<path fill="#ffc200" d="m22684 1106h-347.6l-456.2-627.8-135.6 186.5 320.6 441.3h-347.6l-146.8-202-146.8 202h-347.6l803.8-1106 803.8 1106zm-331.9-30.9h271.1l-743-1022.8-743.1 1022.8h271.1l162.6-223.7 162.6 223.7h271.1l-298.1-410.4 173.8-239.2 471.9 649.6z"></path>
<path fill="#ffc200" d="m23737 0-803.8 1106-803.8-1106h347.6l146.8 202 146.8-202h347.6l-320.6 441.3 135.6 186.5 456.2-627.8h347.6zm-331.9 30.9-471.9 649.6-173.8-239.2 298.1-410.4h-271.1l-162.6 223.7-162.6-223.7h-271.1l743.1 1022.8 743-1022.8h-271.1z"></path>
<path fill="#ffc200" d="m23184 1106 803.8-1106 803.8 1106h-347.6l-146.8-202-146.8 202h-347.6l320.6-441.3-135.6-186.5-456.2 627.8h-347.6zm331.9-30.9 471.9-649.6 173.8 239.2-298.1 410.4h271.1l162.6-223.7 162.6 223.7h271.1l-743.1-1022.8-743 1022.8h271.1z"></path>
<path fill="#ffc200" d="m25845 0-803.8 1106-803.8-1106h347.6l146.8 202 146.8-202h347.6l-320.6 441.3 135.6 186.5 456.2-627.8h347.6zm-331.9 30.9-471.9 649.6-173.8-239.2 298.1-410.4h-271.1l-162.6 223.7-162.6-223.7h-271.1l743.1 1022.8 743-1022.8h-271.1z"></path>
<path fill="#ffc200" d="m26899 1106h-347.6l-456.2-627.8-135.6 186.5 320.6 441.3h-347.6l-146.8-202-146.8 202h-347.6l803.8-1106 803.8 1106zm-331.9-30.9h271.1l-743-1022.8-743.1 1022.8h271.1l162.6-223.7 162.6 223.7h271.1l-298.1-410.4 173.8-239.2 471.9 649.6z"></path>
<path fill="#ffc200" d="m27953 0-803.8 1106-803.8-1106h347.6l146.8 202 146.8-202h347.6l-320.6 441.3 135.6 186.5 456.2-627.8h347.6zm-331.9 30.9-471.9 649.6-173.8-239.2 298.1-410.4h-271.1l-162.6 223.7-162.6-223.7h-271.1l743.1 1022.8 743-1022.8h-271.1z"></path>
<path fill="#ffc200" d="m29006 1106h-347.6l-456.2-627.8-135.6 186.5 320.6 441.3h-347.6l-146.8-202-146.8 202h-347.6l803.8-1106 803.8 1106zm-331.9-30.9h271.1l-743-1022.8-743.1 1022.8h271.1l162.6-223.7 162.6 223.7h271.1l-298.1-410.4 173.8-239.2 471.9 649.6z"></path>
<path fill="#ffc200" d="m30060 0-803.8 1106-803.8-1106h347.6l146.8 202 146.8-202h347.6l-320.6 441.3 135.6 186.5 456.2-627.8h347.6zm-331.9 30.9-471.9 649.6-173.8-239.2 298.1-410.4h-271.1l-162.6 223.7-162.6-223.7h-271.1l743.1 1022.8 743-1022.8h-271.1z"></path>
<path fill="#ffc200" d="m31114 1106h-347.6l-456.2-627.8-135.6 186.5 320.6 441.3h-347.6l-146.8-202-146.8 202h-347.6l803.8-1106 803.8 1106zm-331.9-30.9h271.1l-743-1022.8-743.1 1022.8h271.1l162.6-223.7 162.6 223.7h271.1l-298.1-410.4 173.8-239.2 471.9 649.6z"></path>
<path fill="#ffc200" d="m32168 0-803.8 1106-803.8-1106h347.6l146.8 202 146.8-202h347.6l-320.6 441.3 135.6 186.5 456.2-627.8h347.6zm-331.9 30.9-471.9 649.6-173.8-239.2 298.1-410.4h-271.1l-162.6 223.7-162.6-223.7h-271.1l743.1 1022.8 743-1022.8h-271.1z"></path>
<path fill="#ffc200" d="m31614 1106 803.8-1106 803.8 1106h-347.6l-146.8-202-146.8 202h-347.6l320.6-441.3-135.6-186.5-456.2 627.8h-347.6zm331.9-30.9 471.9-649.6 173.8 239.2-298.1 410.4h271.1l162.6-223.7 162.6 223.7h271.1l-743.1-1022.8-743 1022.8h271.1z"></path>
<path fill="#ffc200" d="m34275 0-803.8 1106-803.8-1106h347.6l146.8 202 146.8-202h347.6l-320.6 441.3 135.6 186.5 456.2-627.8h347.6zm-331.9 30.9-471.9 649.6-173.8-239.2 298.1-410.4h-271.1l-162.6 223.7-162.6-223.7h-271.1l743.1 1022.8 743-1022.8h-271.1z"></path>
<path fill="#ffc200" d="m35329 1106h-347.6l-456.2-627.8-135.6 186.5 320.6 441.3h-347.6l-146.8-202-146.8 202h-347.6l803.8-1106 803.8 1106zm-331.9-30.9h271.1l-743-1022.8-743.1 1022.8h271.1l162.6-223.7 162.6 223.7h271.1l-298.1-410.4 173.8-239.2 471.9 649.6z"></path>
<path fill="#ffc200" d="m36383 0-803.8 1106-803.8-1106h347.6l146.8 202 146.8-202h347.6l-320.6 441.3 135.6 186.5 456.2-627.8h347.6zm-331.9 30.9-471.9 649.6-173.8-239.2 298.1-410.4h-271.1l-162.6 223.7-162.6-223.7h-271.1l743.1 1022.8 743-1022.8h-271.1z"></path>
<path fill="#ffc200" d="m37437 1106h-347.6l-456.2-627.8-135.6 186.5 320.6 441.3h-347.6l-146.8-202-146.8 202h-347.6l803.8-1106 803.8 1106zm-331.9-30.9h271.1l-743-1022.8-743.1 1022.8h271.1l162.6-223.7 162.6 223.7h271.1l-298.1-410.4 173.8-239.2 471.9 649.6z"></path>
<path fill="#ffc200" d="m38491 0-803.8 1106-803.8-1106h347.6l146.8 202 146.8-202h347.6l-320.6 441.3 135.6 186.5 456.2-627.8h347.6zm-331.9 30.9-471.9 649.6-173.8-239.2 298.1-410.4h-271.1l-162.6 223.7-162.6-223.7h-271.1l743.1 1022.8 743-1022.8h-271.1z"></path>
<path fill="#ffc200" d="m39544 1106h-347.6l-456.2-627.8-135.6 186.5 320.6 441.3h-347.6l-146.8-202-146.8 202h-347.6l803.8-1106 803.8 1106zm-331.9-30.9h271.1l-743-1022.8-743.1 1022.8h271.1l162.6-223.7 162.6 223.7h271.1l-298.1-410.4 173.8-239.2 471.9 649.6z"></path>
<path fill="#ffc200" d="m40598 0-803.8 1106-803.8-1106h347.6l146.8 202 146.8-202h347.6l-320.6 441.3 135.6 186.5 456.2-627.8h347.6zm-331.9 30.9-471.9 649.6-173.8-239.2 298.1-410.4h-271.1l-162.6 223.7-162.6-223.7h-271.1l743.1 1022.8 743-1022.8h-271.1z"></path>
</g><g transform="" style="
    transform: scale(.403) translateY(4100px);
">
<path fill="#ffc200" d="m1607.6 1106h-347.6l-456.2-627.8-135.6 186.5 320.6 441.3h-347.6l-146.8-202-146.8 202h-347.6l803.8-1106 803.8 1106zm-331.9-30.9h271.1l-743-1022.8-743.1 1022.8h271.1l162.6-223.7 162.6 223.7h271.1l-298.1-410.4 173.8-239.2 471.9 649.6z"></path>
<path fill="#ffc200" d="m2661.4 0-803.8 1106-803.8-1106h347.6l146.8 202 146.8-202h347.6l-320.6 441.3 135.6 186.5 456.2-627.8h347.6zm-331.9 30.9-471.9 649.6-173.8-239.2 298.1-410.4h-271.1l-162.6 223.7-162.6-223.7h-271.1l743.1 1022.8 743-1022.8h-271.1z"></path>
<path fill="#ffc200" d="m3715.2 1106h-347.6l-456.2-627.8-135.6 186.5 320.6 441.3h-347.6l-146.8-202-146.8 202h-347.6l803.8-1106 803.8 1106zm-331.9-30.9h271.1l-743-1022.8-743.1 1022.8h271.1l162.6-223.7 162.6 223.7h271.1l-298.1-410.4 173.8-239.2 471.9 649.6z"></path>
<path fill="#ffc200" d="m4769 0-803.8 1106-803.8-1106h347.6l146.8 202 146.8-202h347.6l-320.6 441.3 135.6 186.5 456.2-627.8h347.6zm-331.9 30.9-471.9 649.6-173.8-239.2 298.1-410.4h-271.1l-162.6 223.7-162.6-223.7h-271.1l743.1 1022.8 743-1022.8h-271.1z"></path>
<path fill="#ffc200" d="m4215.2 1106 803.8-1106 803.8 1106h-347.6l-146.8-202-146.8 202h-347.6l320.6-441.3-135.6-186.5-456.2 627.8h-347.6zm331.9-30.9 471.9-649.6 173.8 239.2-298.1 410.4h271.1l162.6-223.7 162.6 223.7h271.1l-743.1-1022.8-743 1022.8h271.1z"></path>
<path fill="#ffc200" d="m6876.6 0-803.8 1106-803.8-1106h347.6l146.8 202 146.8-202h347.6l-320.6 441.3 135.6 186.5 456.2-627.8h347.6zm-331.9 30.9-471.9 649.6-173.8-239.2 298.1-410.4h-271.1l-162.6 223.7-162.6-223.7h-271.1l743.1 1022.8 743-1022.8h-271.1z"></path>
<path fill="#ffc200" d="m6322.8 1106 803.8-1106 803.8 1106h-347.6l-146.8-202-146.8 202h-347.6l320.6-441.3-135.6-186.5-456.2 627.8h-347.6zm331.9-30.9 471.9-649.6 173.8 239.2-298.1 410.4h271.1l162.6-223.7 162.6 223.7h271.1l-743.1-1022.8-743 1022.8h271.1z"></path>
<path fill="#ffc200" d="m8984.2 0-803.8 1106-803.8-1106h347.6l146.8 202 146.8-202h347.6l-320.6 441.3 135.6 186.5 456.2-627.8h347.6zm-331.9 30.9-471.9 649.6-173.8-239.2 298.1-410.4h-271.1l-162.6 223.7-162.6-223.7h-271.1l743.1 1022.8 743-1022.8h-271.1z"></path>
<path fill="#ffc200" d="m10038 1106h-347.6l-456.2-627.8-135.6 186.5 320.6 441.3h-347.6l-146.8-202-146.8 202h-347.6l803.8-1106 803.8 1106zm-331.9-30.9h271.1l-743-1022.8-743.1 1022.8h271.1l162.6-223.7 162.6 223.7h271.1l-298.1-410.4 173.8-239.2 471.9 649.6z"></path>
<path fill="#ffc200" d="m11092 0-803.8 1106-803.8-1106h347.6l146.8 202 146.8-202h347.6l-320.6 441.3 135.6 186.5 456.2-627.8h347.6zm-331.9 30.9-471.9 649.6-173.8-239.2 298.1-410.4h-271.1l-162.6 223.7-162.6-223.7h-271.1l743.1 1022.8 743-1022.8h-271.1z"></path>
<path fill="#ffc200" d="m12146 1106h-347.6l-456.2-627.8-135.6 186.5 320.6 441.3h-347.6l-146.8-202-146.8 202h-347.6l803.8-1106 803.8 1106zm-331.9-30.9h271.1l-743-1022.8-743.1 1022.8h271.1l162.6-223.7 162.6 223.7h271.1l-298.1-410.4 173.8-239.2 471.9 649.6z"></path>
<path fill="#ffc200" d="m13199 0-803.8 1106-803.8-1106h347.6l146.8 202 146.8-202h347.6l-320.6 441.3 135.6 186.5 456.2-627.8h347.6zm-331.9 30.9-471.9 649.6-173.8-239.2 298.1-410.4h-271.1l-162.6 223.7-162.6-223.7h-271.1l743.1 1022.8 743-1022.8h-271.1z"></path>
<path fill="#ffc200" d="m12646 1106 803.8-1106 803.8 1106h-347.6l-146.8-202-146.8 202h-347.6l320.6-441.3-135.6-186.5-456.2 627.8h-347.6zm331.9-30.9 471.9-649.6 173.8 239.2-298.1 410.4h271.1l162.6-223.7 162.6 223.7h271.1l-743.1-1022.8-743 1022.8h271.1z"></path>
<path fill="#ffc200" d="m15307 0-803.8 1106-803.8-1106h347.6l146.8 202 146.8-202h347.6l-320.6 441.3 135.6 186.5 456.2-627.8h347.6zm-331.9 30.9-471.9 649.6-173.8-239.2 298.1-410.4h-271.1l-162.6 223.7-162.6-223.7h-271.1l743.1 1022.8 743-1022.8h-271.1z"></path>
<path fill="#ffc200" d="m14753 1106 803.8-1106 803.8 1106h-347.6l-146.8-202-146.8 202h-347.6l320.6-441.3-135.6-186.5-456.2 627.8h-347.6zm331.9-30.9 471.9-649.6 173.8 239.2-298.1 410.4h271.1l162.6-223.7 162.6 223.7h271.1l-743.1-1022.8-743 1022.8h271.1z"></path>
<path fill="#ffc200" d="m17415 0-803.8 1106-803.8-1106h347.6l146.8 202 146.8-202h347.6l-320.6 441.3 135.6 186.5 456.2-627.8h347.6zm-331.9 30.9-471.9 649.6-173.8-239.2 298.1-410.4h-271.1l-162.6 223.7-162.6-223.7h-271.1l743.1 1022.8 743-1022.8h-271.1z"></path>
<path fill="#ffc200" d="m18468 1106h-347.6l-456.2-627.8-135.6 186.5 320.6 441.3h-347.6l-146.8-202-146.8 202h-347.6l803.8-1106 803.8 1106zm-331.9-30.9h271.1l-743-1022.8-743.1 1022.8h271.1l162.6-223.7 162.6 223.7h271.1l-298.1-410.4 173.8-239.2 471.9 649.6z"></path>
<path fill="#ffc200" d="m19522 0-803.8 1106-803.8-1106h347.6l146.8 202 146.8-202h347.6l-320.6 441.3 135.6 186.5 456.2-627.8h347.6zm-331.9 30.9-471.9 649.6-173.8-239.2 298.1-410.4h-271.1l-162.6 223.7-162.6-223.7h-271.1l743.1 1022.8 743-1022.8h-271.1z"></path>
<path fill="#ffc200" d="m20576 1106h-347.6l-456.2-627.8-135.6 186.5 320.6 441.3h-347.6l-146.8-202-146.8 202h-347.6l803.8-1106 803.8 1106zm-331.9-30.9h271.1l-743-1022.8-743.1 1022.8h271.1l162.6-223.7 162.6 223.7h271.1l-298.1-410.4 173.8-239.2 471.9 649.6z"></path>
<path fill="#ffc200" d="m21630 0-803.8 1106-803.8-1106h347.6l146.8 202 146.8-202h347.6l-320.6 441.3 135.6 186.5 456.2-627.8h347.6zm-331.9 30.9-471.9 649.6-173.8-239.2 298.1-410.4h-271.1l-162.6 223.7-162.6-223.7h-271.1l743.1 1022.8 743-1022.8h-271.1z"></path>
<path fill="#ffc200" d="m22684 1106h-347.6l-456.2-627.8-135.6 186.5 320.6 441.3h-347.6l-146.8-202-146.8 202h-347.6l803.8-1106 803.8 1106zm-331.9-30.9h271.1l-743-1022.8-743.1 1022.8h271.1l162.6-223.7 162.6 223.7h271.1l-298.1-410.4 173.8-239.2 471.9 649.6z"></path>
<path fill="#ffc200" d="m23737 0-803.8 1106-803.8-1106h347.6l146.8 202 146.8-202h347.6l-320.6 441.3 135.6 186.5 456.2-627.8h347.6zm-331.9 30.9-471.9 649.6-173.8-239.2 298.1-410.4h-271.1l-162.6 223.7-162.6-223.7h-271.1l743.1 1022.8 743-1022.8h-271.1z"></path>
<path fill="#ffc200" d="m23184 1106 803.8-1106 803.8 1106h-347.6l-146.8-202-146.8 202h-347.6l320.6-441.3-135.6-186.5-456.2 627.8h-347.6zm331.9-30.9 471.9-649.6 173.8 239.2-298.1 410.4h271.1l162.6-223.7 162.6 223.7h271.1l-743.1-1022.8-743 1022.8h271.1z"></path>
<path fill="#ffc200" d="m25845 0-803.8 1106-803.8-1106h347.6l146.8 202 146.8-202h347.6l-320.6 441.3 135.6 186.5 456.2-627.8h347.6zm-331.9 30.9-471.9 649.6-173.8-239.2 298.1-410.4h-271.1l-162.6 223.7-162.6-223.7h-271.1l743.1 1022.8 743-1022.8h-271.1z"></path>
<path fill="#ffc200" d="m26899 1106h-347.6l-456.2-627.8-135.6 186.5 320.6 441.3h-347.6l-146.8-202-146.8 202h-347.6l803.8-1106 803.8 1106zm-331.9-30.9h271.1l-743-1022.8-743.1 1022.8h271.1l162.6-223.7 162.6 223.7h271.1l-298.1-410.4 173.8-239.2 471.9 649.6z"></path>
<path fill="#ffc200" d="m27953 0-803.8 1106-803.8-1106h347.6l146.8 202 146.8-202h347.6l-320.6 441.3 135.6 186.5 456.2-627.8h347.6zm-331.9 30.9-471.9 649.6-173.8-239.2 298.1-410.4h-271.1l-162.6 223.7-162.6-223.7h-271.1l743.1 1022.8 743-1022.8h-271.1z"></path>
<path fill="#ffc200" d="m29006 1106h-347.6l-456.2-627.8-135.6 186.5 320.6 441.3h-347.6l-146.8-202-146.8 202h-347.6l803.8-1106 803.8 1106zm-331.9-30.9h271.1l-743-1022.8-743.1 1022.8h271.1l162.6-223.7 162.6 223.7h271.1l-298.1-410.4 173.8-239.2 471.9 649.6z"></path>
<path fill="#ffc200" d="m30060 0-803.8 1106-803.8-1106h347.6l146.8 202 146.8-202h347.6l-320.6 441.3 135.6 186.5 456.2-627.8h347.6zm-331.9 30.9-471.9 649.6-173.8-239.2 298.1-410.4h-271.1l-162.6 223.7-162.6-223.7h-271.1l743.1 1022.8 743-1022.8h-271.1z"></path>
<path fill="#ffc200" d="m31114 1106h-347.6l-456.2-627.8-135.6 186.5 320.6 441.3h-347.6l-146.8-202-146.8 202h-347.6l803.8-1106 803.8 1106zm-331.9-30.9h271.1l-743-1022.8-743.1 1022.8h271.1l162.6-223.7 162.6 223.7h271.1l-298.1-410.4 173.8-239.2 471.9 649.6z"></path>
<path fill="#ffc200" d="m32168 0-803.8 1106-803.8-1106h347.6l146.8 202 146.8-202h347.6l-320.6 441.3 135.6 186.5 456.2-627.8h347.6zm-331.9 30.9-471.9 649.6-173.8-239.2 298.1-410.4h-271.1l-162.6 223.7-162.6-223.7h-271.1l743.1 1022.8 743-1022.8h-271.1z"></path>
<path fill="#ffc200" d="m31614 1106 803.8-1106 803.8 1106h-347.6l-146.8-202-146.8 202h-347.6l320.6-441.3-135.6-186.5-456.2 627.8h-347.6zm331.9-30.9 471.9-649.6 173.8 239.2-298.1 410.4h271.1l162.6-223.7 162.6 223.7h271.1l-743.1-1022.8-743 1022.8h271.1z"></path>
<path fill="#ffc200" d="m34275 0-803.8 1106-803.8-1106h347.6l146.8 202 146.8-202h347.6l-320.6 441.3 135.6 186.5 456.2-627.8h347.6zm-331.9 30.9-471.9 649.6-173.8-239.2 298.1-410.4h-271.1l-162.6 223.7-162.6-223.7h-271.1l743.1 1022.8 743-1022.8h-271.1z"></path>
<path fill="#ffc200" d="m35329 1106h-347.6l-456.2-627.8-135.6 186.5 320.6 441.3h-347.6l-146.8-202-146.8 202h-347.6l803.8-1106 803.8 1106zm-331.9-30.9h271.1l-743-1022.8-743.1 1022.8h271.1l162.6-223.7 162.6 223.7h271.1l-298.1-410.4 173.8-239.2 471.9 649.6z"></path>
<path fill="#ffc200" d="m36383 0-803.8 1106-803.8-1106h347.6l146.8 202 146.8-202h347.6l-320.6 441.3 135.6 186.5 456.2-627.8h347.6zm-331.9 30.9-471.9 649.6-173.8-239.2 298.1-410.4h-271.1l-162.6 223.7-162.6-223.7h-271.1l743.1 1022.8 743-1022.8h-271.1z"></path>
<path fill="#ffc200" d="m37437 1106h-347.6l-456.2-627.8-135.6 186.5 320.6 441.3h-347.6l-146.8-202-146.8 202h-347.6l803.8-1106 803.8 1106zm-331.9-30.9h271.1l-743-1022.8-743.1 1022.8h271.1l162.6-223.7 162.6 223.7h271.1l-298.1-410.4 173.8-239.2 471.9 649.6z"></path>
<path fill="#ffc200" d="m38491 0-803.8 1106-803.8-1106h347.6l146.8 202 146.8-202h347.6l-320.6 441.3 135.6 186.5 456.2-627.8h347.6zm-331.9 30.9-471.9 649.6-173.8-239.2 298.1-410.4h-271.1l-162.6 223.7-162.6-223.7h-271.1l743.1 1022.8 743-1022.8h-271.1z"></path>
<path fill="#ffc200" d="m39544 1106h-347.6l-456.2-627.8-135.6 186.5 320.6 441.3h-347.6l-146.8-202-146.8 202h-347.6l803.8-1106 803.8 1106zm-331.9-30.9h271.1l-743-1022.8-743.1 1022.8h271.1l162.6-223.7 162.6 223.7h271.1l-298.1-410.4 173.8-239.2 471.9 649.6z"></path>
<path fill="#ffc200" d="m40598 0-803.8 1106-803.8-1106h347.6l146.8 202 146.8-202h347.6l-320.6 441.3 135.6 186.5 456.2-627.8h347.6zm-331.9 30.9-471.9 649.6-173.8-239.2 298.1-410.4h-271.1l-162.6 223.7-162.6-223.7h-271.1l743.1 1022.8 743-1022.8h-271.1z"></path>
</g>

<g transform="translate(0 2251.7) scale(.403)" class="stripe" style="
    transform: scale(0.8) translateY(747px) translateX(-1100px);
">
<path fill="#00bbff" d="m1607.6 1106h-347.6l-456.2-627.8-135.6 186.5 320.6 441.3h-347.6l-146.8-202-146.8 202h-347.6l803.8-1106 803.8 1106zm-331.9-30.9h271.1l-743-1022.8-743.1 1022.8h271.1l162.6-223.7 162.6 223.7h271.1l-298.1-410.4 173.8-239.2 471.9 649.6z"></path>
<path fill="#00bbff" d="m2661.4 0-803.8 1106-803.8-1106h347.6l146.8 202 146.8-202h347.6l-320.6 441.3 135.6 186.5 456.2-627.8h347.6zm-331.9 30.9-471.9 649.6-173.8-239.2 298.1-410.4h-271.1l-162.6 223.7-162.6-223.7h-271.1l743.1 1022.8 743-1022.8h-271.1z"></path>
<path fill="#00bbff" d="m3715.2 1106h-347.6l-456.2-627.8-135.6 186.5 320.6 441.3h-347.6l-146.8-202-146.8 202h-347.6l803.8-1106 803.8 1106zm-331.9-30.9h271.1l-743-1022.8-743.1 1022.8h271.1l162.6-223.7 162.6 223.7h271.1l-298.1-410.4 173.8-239.2 471.9 649.6z"></path>
<path fill="#00bbff" d="m4769 0-803.8 1106-803.8-1106h347.6l146.8 202 146.8-202h347.6l-320.6 441.3 135.6 186.5 456.2-627.8h347.6zm-331.9 30.9-471.9 649.6-173.8-239.2 298.1-410.4h-271.1l-162.6 223.7-162.6-223.7h-271.1l743.1 1022.8 743-1022.8h-271.1z"></path>
<path fill="#00bbff" d="m4215.2 1106 803.8-1106 803.8 1106h-347.6l-146.8-202-146.8 202h-347.6l320.6-441.3-135.6-186.5-456.2 627.8h-347.6zm331.9-30.9 471.9-649.6 173.8 239.2-298.1 410.4h271.1l162.6-223.7 162.6 223.7h271.1l-743.1-1022.8-743 1022.8h271.1z"></path>
<path fill="#00bbff" d="m6876.6 0-803.8 1106-803.8-1106h347.6l146.8 202 146.8-202h347.6l-320.6 441.3 135.6 186.5 456.2-627.8h347.6zm-331.9 30.9-471.9 649.6-173.8-239.2 298.1-410.4h-271.1l-162.6 223.7-162.6-223.7h-271.1l743.1 1022.8 743-1022.8h-271.1z"></path>
<path fill="#00bbff" d="m6322.8 1106 803.8-1106 803.8 1106h-347.6l-146.8-202-146.8 202h-347.6l320.6-441.3-135.6-186.5-456.2 627.8h-347.6zm331.9-30.9 471.9-649.6 173.8 239.2-298.1 410.4h271.1l162.6-223.7 162.6 223.7h271.1l-743.1-1022.8-743 1022.8h271.1z"></path>
<path fill="#00bbff" d="m8984.2 0-803.8 1106-803.8-1106h347.6l146.8 202 146.8-202h347.6l-320.6 441.3 135.6 186.5 456.2-627.8h347.6zm-331.9 30.9-471.9 649.6-173.8-239.2 298.1-410.4h-271.1l-162.6 223.7-162.6-223.7h-271.1l743.1 1022.8 743-1022.8h-271.1z"></path>
<path fill="#00bbff" d="m10038 1106h-347.6l-456.2-627.8-135.6 186.5 320.6 441.3h-347.6l-146.8-202-146.8 202h-347.6l803.8-1106 803.8 1106zm-331.9-30.9h271.1l-743-1022.8-743.1 1022.8h271.1l162.6-223.7 162.6 223.7h271.1l-298.1-410.4 173.8-239.2 471.9 649.6z"></path>
<path fill="#00bbff" d="m11092 0-803.8 1106-803.8-1106h347.6l146.8 202 146.8-202h347.6l-320.6 441.3 135.6 186.5 456.2-627.8h347.6zm-331.9 30.9-471.9 649.6-173.8-239.2 298.1-410.4h-271.1l-162.6 223.7-162.6-223.7h-271.1l743.1 1022.8 743-1022.8h-271.1z"></path>
<path fill="#00bbff" d="m12146 1106h-347.6l-456.2-627.8-135.6 186.5 320.6 441.3h-347.6l-146.8-202-146.8 202h-347.6l803.8-1106 803.8 1106zm-331.9-30.9h271.1l-743-1022.8-743.1 1022.8h271.1l162.6-223.7 162.6 223.7h271.1l-298.1-410.4 173.8-239.2 471.9 649.6z"></path>
<path fill="#00bbff" d="m13199 0-803.8 1106-803.8-1106h347.6l146.8 202 146.8-202h347.6l-320.6 441.3 135.6 186.5 456.2-627.8h347.6zm-331.9 30.9-471.9 649.6-173.8-239.2 298.1-410.4h-271.1l-162.6 223.7-162.6-223.7h-271.1l743.1 1022.8 743-1022.8h-271.1z"></path>
<path fill="#00bbff" d="m12646 1106 803.8-1106 803.8 1106h-347.6l-146.8-202-146.8 202h-347.6l320.6-441.3-135.6-186.5-456.2 627.8h-347.6zm331.9-30.9 471.9-649.6 173.8 239.2-298.1 410.4h271.1l162.6-223.7 162.6 223.7h271.1l-743.1-1022.8-743 1022.8h271.1z"></path>
<path fill="#00bbff" d="m15307 0-803.8 1106-803.8-1106h347.6l146.8 202 146.8-202h347.6l-320.6 441.3 135.6 186.5 456.2-627.8h347.6zm-331.9 30.9-471.9 649.6-173.8-239.2 298.1-410.4h-271.1l-162.6 223.7-162.6-223.7h-271.1l743.1 1022.8 743-1022.8h-271.1z"></path>
<path fill="#00bbff" d="m14753 1106 803.8-1106 803.8 1106h-347.6l-146.8-202-146.8 202h-347.6l320.6-441.3-135.6-186.5-456.2 627.8h-347.6zm331.9-30.9 471.9-649.6 173.8 239.2-298.1 410.4h271.1l162.6-223.7 162.6 223.7h271.1l-743.1-1022.8-743 1022.8h271.1z"></path>
<path fill="#00bbff" d="m17415 0-803.8 1106-803.8-1106h347.6l146.8 202 146.8-202h347.6l-320.6 441.3 135.6 186.5 456.2-627.8h347.6zm-331.9 30.9-471.9 649.6-173.8-239.2 298.1-410.4h-271.1l-162.6 223.7-162.6-223.7h-271.1l743.1 1022.8 743-1022.8h-271.1z"></path>
<path fill="#00bbff" d="m18468 1106h-347.6l-456.2-627.8-135.6 186.5 320.6 441.3h-347.6l-146.8-202-146.8 202h-347.6l803.8-1106 803.8 1106zm-331.9-30.9h271.1l-743-1022.8-743.1 1022.8h271.1l162.6-223.7 162.6 223.7h271.1l-298.1-410.4 173.8-239.2 471.9 649.6z"></path>
<path fill="#00bbff" d="m19522 0-803.8 1106-803.8-1106h347.6l146.8 202 146.8-202h347.6l-320.6 441.3 135.6 186.5 456.2-627.8h347.6zm-331.9 30.9-471.9 649.6-173.8-239.2 298.1-410.4h-271.1l-162.6 223.7-162.6-223.7h-271.1l743.1 1022.8 743-1022.8h-271.1z"></path>
<path fill="#00bbff" d="m20576 1106h-347.6l-456.2-627.8-135.6 186.5 320.6 441.3h-347.6l-146.8-202-146.8 202h-347.6l803.8-1106 803.8 1106zm-331.9-30.9h271.1l-743-1022.8-743.1 1022.8h271.1l162.6-223.7 162.6 223.7h271.1l-298.1-410.4 173.8-239.2 471.9 649.6z"></path>
<path fill="#00bbff" d="m21630 0-803.8 1106-803.8-1106h347.6l146.8 202 146.8-202h347.6l-320.6 441.3 135.6 186.5 456.2-627.8h347.6zm-331.9 30.9-471.9 649.6-173.8-239.2 298.1-410.4h-271.1l-162.6 223.7-162.6-223.7h-271.1l743.1 1022.8 743-1022.8h-271.1z"></path>
<path fill="#00bbff" d="m22684 1106h-347.6l-456.2-627.8-135.6 186.5 320.6 441.3h-347.6l-146.8-202-146.8 202h-347.6l803.8-1106 803.8 1106zm-331.9-30.9h271.1l-743-1022.8-743.1 1022.8h271.1l162.6-223.7 162.6 223.7h271.1l-298.1-410.4 173.8-239.2 471.9 649.6z"></path>
<path fill="#00bbff" d="m23737 0-803.8 1106-803.8-1106h347.6l146.8 202 146.8-202h347.6l-320.6 441.3 135.6 186.5 456.2-627.8h347.6zm-331.9 30.9-471.9 649.6-173.8-239.2 298.1-410.4h-271.1l-162.6 223.7-162.6-223.7h-271.1l743.1 1022.8 743-1022.8h-271.1z"></path>
<path fill="#00bbff" d="m23184 1106 803.8-1106 803.8 1106h-347.6l-146.8-202-146.8 202h-347.6l320.6-441.3-135.6-186.5-456.2 627.8h-347.6zm331.9-30.9 471.9-649.6 173.8 239.2-298.1 410.4h271.1l162.6-223.7 162.6 223.7h271.1l-743.1-1022.8-743 1022.8h271.1z"></path>
<path fill="#00bbff" d="m25845 0-803.8 1106-803.8-1106h347.6l146.8 202 146.8-202h347.6l-320.6 441.3 135.6 186.5 456.2-627.8h347.6zm-331.9 30.9-471.9 649.6-173.8-239.2 298.1-410.4h-271.1l-162.6 223.7-162.6-223.7h-271.1l743.1 1022.8 743-1022.8h-271.1z"></path>
<path fill="#00bbff" d="m26899 1106h-347.6l-456.2-627.8-135.6 186.5 320.6 441.3h-347.6l-146.8-202-146.8 202h-347.6l803.8-1106 803.8 1106zm-331.9-30.9h271.1l-743-1022.8-743.1 1022.8h271.1l162.6-223.7 162.6 223.7h271.1l-298.1-410.4 173.8-239.2 471.9 649.6z"></path>
<path fill="#00bbff" d="m27953 0-803.8 1106-803.8-1106h347.6l146.8 202 146.8-202h347.6l-320.6 441.3 135.6 186.5 456.2-627.8h347.6zm-331.9 30.9-471.9 649.6-173.8-239.2 298.1-410.4h-271.1l-162.6 223.7-162.6-223.7h-271.1l743.1 1022.8 743-1022.8h-271.1z"></path>
<path fill="#00bbff" d="m29006 1106h-347.6l-456.2-627.8-135.6 186.5 320.6 441.3h-347.6l-146.8-202-146.8 202h-347.6l803.8-1106 803.8 1106zm-331.9-30.9h271.1l-743-1022.8-743.1 1022.8h271.1l162.6-223.7 162.6 223.7h271.1l-298.1-410.4 173.8-239.2 471.9 649.6z"></path>
<path fill="#00bbff" d="m30060 0-803.8 1106-803.8-1106h347.6l146.8 202 146.8-202h347.6l-320.6 441.3 135.6 186.5 456.2-627.8h347.6zm-331.9 30.9-471.9 649.6-173.8-239.2 298.1-410.4h-271.1l-162.6 223.7-162.6-223.7h-271.1l743.1 1022.8 743-1022.8h-271.1z"></path>
<path fill="#00bbff" d="m31114 1106h-347.6l-456.2-627.8-135.6 186.5 320.6 441.3h-347.6l-146.8-202-146.8 202h-347.6l803.8-1106 803.8 1106zm-331.9-30.9h271.1l-743-1022.8-743.1 1022.8h271.1l162.6-223.7 162.6 223.7h271.1l-298.1-410.4 173.8-239.2 471.9 649.6z"></path>
<path fill="#00bbff" d="m32168 0-803.8 1106-803.8-1106h347.6l146.8 202 146.8-202h347.6l-320.6 441.3 135.6 186.5 456.2-627.8h347.6zm-331.9 30.9-471.9 649.6-173.8-239.2 298.1-410.4h-271.1l-162.6 223.7-162.6-223.7h-271.1l743.1 1022.8 743-1022.8h-271.1z"></path>
<path fill="#00bbff" d="m31614 1106 803.8-1106 803.8 1106h-347.6l-146.8-202-146.8 202h-347.6l320.6-441.3-135.6-186.5-456.2 627.8h-347.6zm331.9-30.9 471.9-649.6 173.8 239.2-298.1 410.4h271.1l162.6-223.7 162.6 223.7h271.1l-743.1-1022.8-743 1022.8h271.1z"></path>
<path fill="#00bbff" d="m34275 0-803.8 1106-803.8-1106h347.6l146.8 202 146.8-202h347.6l-320.6 441.3 135.6 186.5 456.2-627.8h347.6zm-331.9 30.9-471.9 649.6-173.8-239.2 298.1-410.4h-271.1l-162.6 223.7-162.6-223.7h-271.1l743.1 1022.8 743-1022.8h-271.1z"></path>
<path fill="#00bbff" d="m35329 1106h-347.6l-456.2-627.8-135.6 186.5 320.6 441.3h-347.6l-146.8-202-146.8 202h-347.6l803.8-1106 803.8 1106zm-331.9-30.9h271.1l-743-1022.8-743.1 1022.8h271.1l162.6-223.7 162.6 223.7h271.1l-298.1-410.4 173.8-239.2 471.9 649.6z"></path>
<path fill="#00bbff" d="m36383 0-803.8 1106-803.8-1106h347.6l146.8 202 146.8-202h347.6l-320.6 441.3 135.6 186.5 456.2-627.8h347.6zm-331.9 30.9-471.9 649.6-173.8-239.2 298.1-410.4h-271.1l-162.6 223.7-162.6-223.7h-271.1l743.1 1022.8 743-1022.8h-271.1z"></path>
<path fill="#00bbff" d="m37437 1106h-347.6l-456.2-627.8-135.6 186.5 320.6 441.3h-347.6l-146.8-202-146.8 202h-347.6l803.8-1106 803.8 1106zm-331.9-30.9h271.1l-743-1022.8-743.1 1022.8h271.1l162.6-223.7 162.6 223.7h271.1l-298.1-410.4 173.8-239.2 471.9 649.6z"></path>
<path fill="#00bbff" d="m38491 0-803.8 1106-803.8-1106h347.6l146.8 202 146.8-202h347.6l-320.6 441.3 135.6 186.5 456.2-627.8h347.6zm-331.9 30.9-471.9 649.6-173.8-239.2 298.1-410.4h-271.1l-162.6 223.7-162.6-223.7h-271.1l743.1 1022.8 743-1022.8h-271.1z"></path>
<path fill="#00bbff" d="m39544 1106h-347.6l-456.2-627.8-135.6 186.5 320.6 441.3h-347.6l-146.8-202-146.8 202h-347.6l803.8-1106 803.8 1106zm-331.9-30.9h271.1l-743-1022.8-743.1 1022.8h271.1l162.6-223.7 162.6 223.7h271.1l-298.1-410.4 173.8-239.2 471.9 649.6z"></path>
<path fill="#00bbff" d="m40598 0-803.8 1106-803.8-1106h347.6l146.8 202 146.8-202h347.6l-320.6 441.3 135.6 186.5 456.2-627.8h347.6zm-331.9 30.9-471.9 649.6-173.8-239.2 298.1-410.4h-271.1l-162.6 223.7-162.6-223.7h-271.1l743.1 1022.8 743-1022.8h-271.1z"></path>
</g>
</svg>
